<?xml version="1.0" encoding="UTF-8" standalone="no"?>
<!DOCTYPE svg PUBLIC "-//W3C//DTD SVG 1.1//EN"
 "http://www.w3.org/Graphics/SVG/1.1/DTD/svg11.dtd">
<!-- Generated by graphviz version 2.38.0 (20140413.2041)
 -->
<!-- Title: %3 Pages: 1 -->
<svg width="1537pt" height="593pt"
 viewBox="0.00 0.00 1844.92 712.00" xmlns="http://www.w3.org/2000/svg" xmlns:xlink="http://www.w3.org/1999/xlink">
<g id="graph0" class="graph" transform="scale(0.833333 0.833333) rotate(0) translate(4 708)">
<title>%3</title>
<polygon fill="white" stroke="none" points="-4,4 -4,-708 1840.92,-708 1840.92,4 -4,4"/>
<!-- node19091 -->
<g id="node1" class="node"><title>node19091</title>
<polygon fill="#cdb79e" stroke="black" points="645.959,-704 544.965,-704 544.965,-708 532.965,-708 532.965,-570 645.959,-570 645.959,-704"/>
<polyline fill="none" stroke="black" points="532.965,-704 544.965,-704 "/>
<text text-anchor="middle" x="589.462" y="-688.8" font-family="Monospace" font-size="14.00" fill="white">:shell 7</text>
<text text-anchor="middle" x="589.462" y="-674.8" font-family="Monospace" font-size="14.00" fill="white">:blank 12129</text>
<text text-anchor="middle" x="589.462" y="-660.8" font-family="Monospace" font-size="14.00" fill="white">:xml 565</text>
<text text-anchor="middle" x="589.462" y="-646.8" font-family="Monospace" font-size="14.00" fill="white">:text 2281</text>
<text text-anchor="middle" x="589.462" y="-632.8" font-family="Monospace" font-size="14.00" fill="white">:unknown 655</text>
<text text-anchor="middle" x="589.462" y="-618.8" font-family="Monospace" font-size="14.00" fill="white">:html 427</text>
<text text-anchor="middle" x="589.462" y="-604.8" font-family="Monospace" font-size="14.00" fill="white">:comment 1628</text>
<text text-anchor="middle" x="589.462" y="-590.8" font-family="Monospace" font-size="14.00" fill="white">:clojure 30183</text>
<text text-anchor="middle" x="589.462" y="-576.8" font-family="Monospace" font-size="14.00" fill="white">:java 52355</text>
</g>
<!-- node19092 -->
<g id="node2" class="node"><title>node19092</title>
<polygon fill="gainsboro" stroke="black" points="430.899,-492 360.024,-492 360.024,-496 348.024,-496 348.024,-456 430.899,-456 430.899,-492"/>
<polyline fill="none" stroke="black" points="348.024,-492 360.024,-492 "/>
<text text-anchor="middle" x="389.462" y="-469.8" font-family="Monospace" font-size="14.00" fill="white">*excluded*</text>
</g>
<!-- node19091&#45;&gt;node19092 -->
<g id="edge1" class="edge"><title>node19091&#45;&gt;node19092</title>
<path fill="none" stroke="black" d="M532.92,-593.286C504.801,-571.716 470.494,-544.9 440.462,-520 432.585,-513.469 424.197,-506.203 416.546,-499.449"/>
<polygon fill="black" stroke="black" points="418.393,-496.407 408.593,-492.378 413.742,-501.638 418.393,-496.407"/>
<text text-anchor="middle" x="488.745" y="-540.8" font-family="Monospace" font-size="14.00">/.git</text>
</g>
<!-- node19093 -->
<g id="node3" class="node"><title>node19093</title>
<polygon fill="gainsboro" stroke="black" points="531.899,-492 461.024,-492 461.024,-496 449.024,-496 449.024,-456 531.899,-456 531.899,-492"/>
<polyline fill="none" stroke="black" points="449.024,-492 461.024,-492 "/>
<text text-anchor="middle" x="490.462" y="-469.8" font-family="Monospace" font-size="14.00" fill="white">*excluded*</text>
</g>
<!-- node19091&#45;&gt;node19093 -->
<g id="edge2" class="edge"><title>node19091&#45;&gt;node19093</title>
<path fill="none" stroke="black" d="M548.623,-569.586C533.769,-545.429 517.841,-519.526 506.416,-500.945"/>
<polygon fill="black" stroke="black" points="509.257,-498.884 501.038,-492.199 503.294,-502.551 509.257,-498.884"/>
<text text-anchor="middle" x="554.586" y="-540.8" font-family="Monospace" font-size="14.00">/.idea</text>
</g>
<!-- node19094 -->
<g id="node4" class="node"><title>node19094</title>
<polygon fill="#cdb79e" stroke="black" points="629.037,-492 561.887,-492 561.887,-496 549.887,-496 549.887,-456 629.037,-456 629.037,-492"/>
<polyline fill="none" stroke="black" points="549.887,-492 561.887,-492 "/>
<text text-anchor="middle" x="589.462" y="-476.8" font-family="Monospace" font-size="14.00" fill="white">:text 355</text>
<text text-anchor="middle" x="589.462" y="-462.8" font-family="Monospace" font-size="14.00" fill="white">:blank 117</text>
</g>
<!-- node19091&#45;&gt;node19094 -->
<g id="edge3" class="edge"><title>node19091&#45;&gt;node19094</title>
<path fill="none" stroke="black" d="M589.462,-569.586C589.462,-545.98 589.462,-520.707 589.462,-502.229"/>
<polygon fill="black" stroke="black" points="592.962,-502.199 589.462,-492.199 585.962,-502.199 592.962,-502.199"/>
<text text-anchor="middle" x="602.693" y="-540.8" font-family="Monospace" font-size="14.00">/doc</text>
</g>
<!-- node19097 -->
<g id="node7" class="node"><title>node19097</title>
<polygon fill="#cdb79e" stroke="black" points="751.672,-520 659.252,-520 659.252,-524 647.252,-524 647.252,-428 751.672,-428 751.672,-520"/>
<polyline fill="none" stroke="black" points="647.252,-520 659.252,-520 "/>
<text text-anchor="middle" x="699.462" y="-504.8" font-family="Monospace" font-size="14.00" fill="white">:xml 81</text>
<text text-anchor="middle" x="699.462" y="-490.8" font-family="Monospace" font-size="14.00" fill="white">:comment 822</text>
<text text-anchor="middle" x="699.462" y="-476.8" font-family="Monospace" font-size="14.00" fill="white">:blank 9328</text>
<text text-anchor="middle" x="699.462" y="-462.8" font-family="Monospace" font-size="14.00" fill="white">:clojure 19453</text>
<text text-anchor="middle" x="699.462" y="-448.8" font-family="Monospace" font-size="14.00" fill="white">:java 52311</text>
<text text-anchor="middle" x="699.462" y="-434.8" font-family="Monospace" font-size="14.00" fill="white">:html 211</text>
</g>
<!-- node19091&#45;&gt;node19097 -->
<g id="edge4" class="edge"><title>node19091&#45;&gt;node19097</title>
<path fill="none" stroke="black" d="M634.838,-569.586C644.159,-555.943 653.861,-541.743 662.827,-528.62"/>
<polygon fill="black" stroke="black" points="665.85,-530.4 668.601,-520.169 660.07,-526.451 665.85,-530.4"/>
<text text-anchor="middle" x="665.738" y="-540.8" font-family="Monospace" font-size="14.00">/src</text>
</g>
<!-- node19116 -->
<g id="node26" class="node"><title>node19116</title>
<polygon fill="#cdb79e" stroke="black" points="1416.67,-513 1324.25,-513 1324.25,-517 1312.25,-517 1312.25,-435 1416.67,-435 1416.67,-513"/>
<polyline fill="none" stroke="black" points="1312.25,-513 1324.25,-513 "/>
<text text-anchor="middle" x="1364.46" y="-497.8" font-family="Monospace" font-size="14.00" fill="white">:comment 806</text>
<text text-anchor="middle" x="1364.46" y="-483.8" font-family="Monospace" font-size="14.00" fill="white">:blank 2024</text>
<text text-anchor="middle" x="1364.46" y="-469.8" font-family="Monospace" font-size="14.00" fill="white">:clojure 10730</text>
<text text-anchor="middle" x="1364.46" y="-455.8" font-family="Monospace" font-size="14.00" fill="white">:unknown 632</text>
<text text-anchor="middle" x="1364.46" y="-441.8" font-family="Monospace" font-size="14.00" fill="white">:java 44</text>
</g>
<!-- node19091&#45;&gt;node19116 -->
<g id="edge5" class="edge"><title>node19091&#45;&gt;node19116</title>
<path fill="none" stroke="black" d="M645.822,-624.292C786.903,-594.983 1154.5,-518.619 1301.94,-487.989"/>
<polygon fill="black" stroke="black" points="1303.09,-491.325 1312.17,-485.864 1301.66,-484.471 1303.09,-491.325"/>
<text text-anchor="middle" x="1059.69" y="-540.8" font-family="Monospace" font-size="14.00">/test</text>
</g>
<!-- node19095 -->
<g id="node5" class="node"><title>node19095</title>
<polygon fill="#cdb79e" stroke="black" points="402.037,-364 334.887,-364 334.887,-368 322.887,-368 322.887,-328 402.037,-328 402.037,-364"/>
<polyline fill="none" stroke="black" points="322.887,-364 334.887,-364 "/>
<text text-anchor="middle" x="362.462" y="-348.8" font-family="Monospace" font-size="14.00" fill="white">:text 355</text>
<text text-anchor="middle" x="362.462" y="-334.8" font-family="Monospace" font-size="14.00" fill="white">:blank 117</text>
</g>
<!-- node19094&#45;&gt;node19095 -->
<g id="edge6" class="edge"><title>node19094&#45;&gt;node19095</title>
<path fill="none" stroke="black" d="M573.919,-455.964C564.846,-446.767 552.783,-435.745 540.462,-428 522.179,-416.507 515.126,-418.63 495.331,-410 465.214,-396.87 431.798,-381.019 406.012,-368.502"/>
<polygon fill="black" stroke="black" points="407.4,-365.285 396.877,-364.053 404.335,-371.578 407.4,-365.285"/>
<text text-anchor="middle" x="518.027" y="-398.8" font-family="Monospace" font-size="14.00">/clojure</text>
</g>
<!-- node19096 -->
<g id="node6" class="node"><title>node19096</title>
<polygon fill="#cdb79e" stroke="black" points="383.037,-250 315.887,-250 315.887,-254 303.887,-254 303.887,-214 383.037,-214 383.037,-250"/>
<polyline fill="none" stroke="black" points="303.887,-250 315.887,-250 "/>
<text text-anchor="middle" x="343.462" y="-234.8" font-family="Monospace" font-size="14.00" fill="white">:text 355</text>
<text text-anchor="middle" x="343.462" y="-220.8" font-family="Monospace" font-size="14.00" fill="white">:blank 117</text>
</g>
<!-- node19095&#45;&gt;node19096 -->
<g id="edge7" class="edge"><title>node19095&#45;&gt;node19096</title>
<path fill="none" stroke="black" d="M359.576,-327.99C356.521,-309.981 351.655,-281.293 348.068,-260.152"/>
<polygon fill="black" stroke="black" points="351.498,-259.444 346.375,-250.17 344.597,-260.615 351.498,-259.444"/>
<text text-anchor="middle" x="373.917" y="-284.8" font-family="Monospace" font-size="14.00">/pprint</text>
</g>
<!-- node19098 -->
<g id="node8" class="node"><title>node19098</title>
<polygon fill="#cdb79e" stroke="black" points="514.086,-364 464.838,-364 464.838,-368 452.838,-368 452.838,-328 514.086,-328 514.086,-364"/>
<polyline fill="none" stroke="black" points="452.838,-364 464.838,-364 "/>
<text text-anchor="middle" x="483.462" y="-341.8" font-family="Monospace" font-size="14.00" fill="white">:xml 81</text>
</g>
<!-- node19097&#45;&gt;node19098 -->
<g id="edge8" class="edge"><title>node19097&#45;&gt;node19098</title>
<path fill="none" stroke="black" d="M647.015,-432.417C644.181,-430.827 641.321,-429.341 638.462,-428 608.201,-413.804 595.59,-424.433 565.441,-410 544.281,-399.87 542.062,-392.297 523.462,-378 520.262,-375.54 516.922,-372.965 513.596,-370.395"/>
<polygon fill="black" stroke="black" points="515.495,-367.439 505.444,-364.087 511.211,-372.975 515.495,-367.439"/>
<text text-anchor="middle" x="596.972" y="-398.8" font-family="Monospace" font-size="14.00">/assembly</text>
</g>
<!-- node19099 -->
<g id="node9" class="node"><title>node19099</title>
<polygon fill="#cdb79e" stroke="black" points="636.672,-371 544.252,-371 544.252,-375 532.252,-375 532.252,-321 636.672,-321 636.672,-371"/>
<polyline fill="none" stroke="black" points="532.252,-371 544.252,-371 "/>
<text text-anchor="middle" x="584.462" y="-355.8" font-family="Monospace" font-size="14.00" fill="white">:comment 822</text>
<text text-anchor="middle" x="584.462" y="-341.8" font-family="Monospace" font-size="14.00" fill="white">:blank 2963</text>
<text text-anchor="middle" x="584.462" y="-327.8" font-family="Monospace" font-size="14.00" fill="white">:clojure 19439</text>
</g>
<!-- node19097&#45;&gt;node19099 -->
<g id="edge9" class="edge"><title>node19097&#45;&gt;node19099</title>
<path fill="none" stroke="black" d="M658.269,-427.867C643.451,-411.631 627.057,-393.67 613.492,-378.806"/>
<polygon fill="black" stroke="black" points="616.005,-376.369 606.679,-371.342 610.835,-381.088 616.005,-376.369"/>
<text text-anchor="middle" x="651.017" y="-398.8" font-family="Monospace" font-size="14.00">/clj</text>
</g>
<!-- node19107 -->
<g id="node17" class="node"><title>node19107</title>
<polygon fill="#cdb79e" stroke="black" points="743.855,-371 667.068,-371 667.068,-375 655.068,-375 655.068,-321 743.855,-321 743.855,-371"/>
<polyline fill="none" stroke="black" points="655.068,-371 667.068,-371 "/>
<text text-anchor="middle" x="699.462" y="-355.8" font-family="Monospace" font-size="14.00" fill="white">:java 52311</text>
<text text-anchor="middle" x="699.462" y="-341.8" font-family="Monospace" font-size="14.00" fill="white">:blank 6365</text>
<text text-anchor="middle" x="699.462" y="-327.8" font-family="Monospace" font-size="14.00" fill="white">:html 211</text>
</g>
<!-- node19097&#45;&gt;node19107 -->
<g id="edge10" class="edge"><title>node19097&#45;&gt;node19107</title>
<path fill="none" stroke="black" d="M699.462,-427.867C699.462,-412.674 699.462,-395.97 699.462,-381.707"/>
<polygon fill="black" stroke="black" points="702.962,-381.342 699.462,-371.342 695.962,-381.342 702.962,-381.342"/>
<text text-anchor="middle" x="712.293" y="-398.8" font-family="Monospace" font-size="14.00">/jvm</text>
</g>
<!-- node19114 -->
<g id="node24" class="node"><title>node19114</title>
<polygon fill="gainsboro" stroke="black" points="844.899,-364 774.024,-364 774.024,-368 762.024,-368 762.024,-328 844.899,-328 844.899,-364"/>
<polyline fill="none" stroke="black" points="762.024,-364 774.024,-364 "/>
<text text-anchor="middle" x="803.462" y="-341.8" font-family="Monospace" font-size="14.00" fill="white">*excluded*</text>
</g>
<!-- node19097&#45;&gt;node19114 -->
<g id="edge11" class="edge"><title>node19097&#45;&gt;node19114</title>
<path fill="none" stroke="black" d="M736.715,-427.867C752.2,-409.106 769.588,-388.04 782.733,-372.113"/>
<polygon fill="black" stroke="black" points="785.522,-374.233 789.189,-364.293 780.124,-369.777 785.522,-374.233"/>
<text text-anchor="middle" x="794.141" y="-398.8" font-family="Monospace" font-size="14.00">/resources</text>
</g>
<!-- node19115 -->
<g id="node25" class="node"><title>node19115</title>
<polygon fill="#cdb79e" stroke="black" points="943.556,-364 875.368,-364 875.368,-368 863.368,-368 863.368,-328 943.556,-328 943.556,-364"/>
<polyline fill="none" stroke="black" points="863.368,-364 875.368,-364 "/>
<text text-anchor="middle" x="903.462" y="-341.8" font-family="Monospace" font-size="14.00" fill="white">:clojure 14</text>
</g>
<!-- node19097&#45;&gt;node19115 -->
<g id="edge12" class="edge"><title>node19097&#45;&gt;node19115</title>
<path fill="none" stroke="black" d="M751.86,-451.622C776.533,-440.61 805.872,-426.115 830.462,-410 847.668,-398.724 865.175,-383.757 878.731,-371.241"/>
<polygon fill="black" stroke="black" points="881.332,-373.6 886.223,-364.202 876.539,-368.498 881.332,-373.6"/>
<text text-anchor="middle" x="869.131" y="-398.8" font-family="Monospace" font-size="14.00">/script</text>
</g>
<!-- node19100 -->
<g id="node10" class="node"><title>node19100</title>
<polygon fill="#cdb79e" stroke="black" points="505.672,-257 413.252,-257 413.252,-261 401.252,-261 401.252,-207 505.672,-207 505.672,-257"/>
<polyline fill="none" stroke="black" points="401.252,-257 413.252,-257 "/>
<text text-anchor="middle" x="453.462" y="-241.8" font-family="Monospace" font-size="14.00" fill="white">:comment 822</text>
<text text-anchor="middle" x="453.462" y="-227.8" font-family="Monospace" font-size="14.00" fill="white">:blank 2963</text>
<text text-anchor="middle" x="453.462" y="-213.8" font-family="Monospace" font-size="14.00" fill="white">:clojure 19439</text>
</g>
<!-- node19099&#45;&gt;node19100 -->
<g id="edge13" class="edge"><title>node19099&#45;&gt;node19100</title>
<path fill="none" stroke="black" d="M556.359,-320.973C536.893,-304.331 510.801,-282.022 489.762,-264.035"/>
<polygon fill="black" stroke="black" points="491.845,-261.212 481.97,-257.374 487.297,-266.532 491.845,-261.212"/>
<text text-anchor="middle" x="550.027" y="-284.8" font-family="Monospace" font-size="14.00">/clojure</text>
</g>
<!-- node19101 -->
<g id="node11" class="node"><title>node19101</title>
<polygon fill="#cdb79e" stroke="black" points="96.8858,-150 12.0381,-150 12.0381,-154 0.038056,-154 0.038056,-100 96.8858,-100 96.8858,-150"/>
<polyline fill="none" stroke="black" points="0.038056,-150 12.0381,-150 "/>
<text text-anchor="middle" x="48.4619" y="-134.8" font-family="Monospace" font-size="14.00" fill="white">:comment 33</text>
<text text-anchor="middle" x="48.4619" y="-120.8" font-family="Monospace" font-size="14.00" fill="white">:blank 125</text>
<text text-anchor="middle" x="48.4619" y="-106.8" font-family="Monospace" font-size="14.00" fill="white">:clojure 772</text>
</g>
<!-- node19100&#45;&gt;node19101 -->
<g id="edge14" class="edge"><title>node19100&#45;&gt;node19101</title>
<path fill="none" stroke="black" d="M410.592,-206.873C404.634,-204.218 398.489,-201.822 392.462,-200 326.87,-180.169 306.795,-194.043 239.338,-182 179.539,-171.324 164.23,-168.781 106.462,-150 106.365,-149.968 106.268,-149.937 106.17,-149.905"/>
<polygon fill="black" stroke="black" points="107.585,-146.691 96.9899,-146.725 105.294,-153.305 107.585,-146.691"/>
<text text-anchor="middle" x="255.024" y="-170.8" font-family="Monospace" font-size="14.00">/core</text>
</g>
<!-- node19102 -->
<g id="node12" class="node"><title>node19102</title>
<polygon fill="#cdb79e" stroke="black" points="211.886,-150 127.038,-150 127.038,-154 115.038,-154 115.038,-100 211.886,-100 211.886,-150"/>
<polyline fill="none" stroke="black" points="115.038,-150 127.038,-150 "/>
<text text-anchor="middle" x="163.462" y="-134.8" font-family="Monospace" font-size="14.00" fill="white">:comment 40</text>
<text text-anchor="middle" x="163.462" y="-120.8" font-family="Monospace" font-size="14.00" fill="white">:blank 119</text>
<text text-anchor="middle" x="163.462" y="-106.8" font-family="Monospace" font-size="14.00" fill="white">:clojure 622</text>
</g>
<!-- node19100&#45;&gt;node19102 -->
<g id="edge15" class="edge"><title>node19100&#45;&gt;node19102</title>
<path fill="none" stroke="black" d="M409.01,-206.959C403.518,-204.422 397.916,-202.032 392.462,-200 361.322,-188.398 351.839,-191.143 319.89,-182 275.665,-169.344 264.62,-165.917 221.462,-150 221.366,-149.965 221.27,-149.929 221.174,-149.894"/>
<polygon fill="black" stroke="black" points="222.679,-146.721 212.088,-146.444 220.194,-153.265 222.679,-146.721"/>
<text text-anchor="middle" x="335.248" y="-170.8" font-family="Monospace" font-size="14.00">/java</text>
</g>
<!-- node19103 -->
<g id="node13" class="node"><title>node19103</title>
<polygon fill="#cdb79e" stroke="black" points="334.672,-150 242.252,-150 242.252,-154 230.252,-154 230.252,-100 334.672,-100 334.672,-150"/>
<polyline fill="none" stroke="black" points="230.252,-150 242.252,-150 "/>
<text text-anchor="middle" x="282.462" y="-134.8" font-family="Monospace" font-size="14.00" fill="white">:comment 359</text>
<text text-anchor="middle" x="282.462" y="-120.8" font-family="Monospace" font-size="14.00" fill="white">:blank 475</text>
<text text-anchor="middle" x="282.462" y="-106.8" font-family="Monospace" font-size="14.00" fill="white">:clojure 2793</text>
</g>
<!-- node19100&#45;&gt;node19103 -->
<g id="edge16" class="edge"><title>node19100&#45;&gt;node19103</title>
<path fill="none" stroke="black" d="M414.231,-206.911C389.338,-191.625 356.956,-171.742 330.523,-155.511"/>
<polygon fill="black" stroke="black" points="332.159,-152.409 321.806,-150.159 328.496,-158.374 332.159,-152.409"/>
<text text-anchor="middle" x="392.917" y="-170.8" font-family="Monospace" font-size="14.00">/pprint</text>
</g>
<!-- node19104 -->
<g id="node14" class="node"><title>node19104</title>
<polygon fill="#cdb79e" stroke="black" points="442.1,-150 364.824,-150 364.824,-154 352.824,-154 352.824,-100 442.1,-100 442.1,-150"/>
<polyline fill="none" stroke="black" points="352.824,-150 364.824,-150 "/>
<text text-anchor="middle" x="397.462" y="-134.8" font-family="Monospace" font-size="14.00" fill="white">:comment 8</text>
<text text-anchor="middle" x="397.462" y="-120.8" font-family="Monospace" font-size="14.00" fill="white">:blank 30</text>
<text text-anchor="middle" x="397.462" y="-106.8" font-family="Monospace" font-size="14.00" fill="white">:clojure 217</text>
</g>
<!-- node19100&#45;&gt;node19104 -->
<g id="edge17" class="edge"><title>node19100&#45;&gt;node19104</title>
<path fill="none" stroke="black" d="M440.614,-206.911C433.127,-192.872 423.571,-174.954 415.355,-159.55"/>
<polygon fill="black" stroke="black" points="418.238,-157.517 410.444,-150.341 412.061,-160.811 418.238,-157.517"/>
<text text-anchor="middle" x="448.469" y="-170.8" font-family="Monospace" font-size="14.00">/reflect</text>
</g>
<!-- node19105 -->
<g id="node15" class="node"><title>node19105</title>
<polygon fill="#cdb79e" stroke="black" points="556.886,-150 472.038,-150 472.038,-154 460.038,-154 460.038,-100 556.886,-100 556.886,-150"/>
<polyline fill="none" stroke="black" points="460.038,-150 472.038,-150 "/>
<text text-anchor="middle" x="508.462" y="-134.8" font-family="Monospace" font-size="14.00" fill="white">:comment 17</text>
<text text-anchor="middle" x="508.462" y="-120.8" font-family="Monospace" font-size="14.00" fill="white">:blank 94</text>
<text text-anchor="middle" x="508.462" y="-106.8" font-family="Monospace" font-size="14.00" fill="white">:clojure 579</text>
</g>
<!-- node19100&#45;&gt;node19105 -->
<g id="edge18" class="edge"><title>node19100&#45;&gt;node19105</title>
<path fill="none" stroke="black" d="M466.08,-206.911C473.434,-192.872 482.819,-174.954 490.888,-159.55"/>
<polygon fill="black" stroke="black" points="494.172,-160.823 495.712,-150.341 487.972,-157.575 494.172,-160.823"/>
<text text-anchor="middle" x="503.193" y="-170.8" font-family="Monospace" font-size="14.00">/spec</text>
</g>
<!-- node19106 -->
<g id="node16" class="node"><title>node19106</title>
<polygon fill="#cdb79e" stroke="black" points="671.886,-150 587.038,-150 587.038,-154 575.038,-154 575.038,-100 671.886,-100 671.886,-150"/>
<polyline fill="none" stroke="black" points="575.038,-150 587.038,-150 "/>
<text text-anchor="middle" x="623.462" y="-134.8" font-family="Monospace" font-size="14.00" fill="white">:comment 29</text>
<text text-anchor="middle" x="623.462" y="-120.8" font-family="Monospace" font-size="14.00" fill="white">:blank 60</text>
<text text-anchor="middle" x="623.462" y="-106.8" font-family="Monospace" font-size="14.00" fill="white">:clojure 229</text>
</g>
<!-- node19100&#45;&gt;node19106 -->
<g id="edge19" class="edge"><title>node19100&#45;&gt;node19106</title>
<path fill="none" stroke="black" d="M492.463,-206.911C517.211,-191.625 549.404,-171.742 575.682,-155.511"/>
<polygon fill="black" stroke="black" points="577.679,-158.391 584.348,-150.159 574.001,-152.436 577.679,-158.391"/>
<text text-anchor="middle" x="567.689" y="-170.8" font-family="Monospace" font-size="14.00">/test</text>
</g>
<!-- node19108 -->
<g id="node18" class="node"><title>node19108</title>
<polygon fill="#cdb79e" stroke="black" points="827.855,-257 751.068,-257 751.068,-261 739.068,-261 739.068,-207 827.855,-207 827.855,-257"/>
<polyline fill="none" stroke="black" points="739.068,-257 751.068,-257 "/>
<text text-anchor="middle" x="783.462" y="-241.8" font-family="Monospace" font-size="14.00" fill="white">:java 52311</text>
<text text-anchor="middle" x="783.462" y="-227.8" font-family="Monospace" font-size="14.00" fill="white">:blank 6365</text>
<text text-anchor="middle" x="783.462" y="-213.8" font-family="Monospace" font-size="14.00" fill="white">:html 211</text>
</g>
<!-- node19107&#45;&gt;node19108 -->
<g id="edge20" class="edge"><title>node19107&#45;&gt;node19108</title>
<path fill="none" stroke="black" d="M717.482,-320.973C729.579,-304.844 745.667,-283.393 758.929,-265.711"/>
<polygon fill="black" stroke="black" points="761.982,-267.474 765.182,-257.374 756.382,-263.274 761.982,-267.474"/>
<text text-anchor="middle" x="770.027" y="-284.8" font-family="Monospace" font-size="14.00">/clojure</text>
</g>
<!-- node19109 -->
<g id="node19" class="node"><title>node19109</title>
<polygon fill="#cdb79e" stroke="black" points="778.855,-150 702.068,-150 702.068,-154 690.068,-154 690.068,-100 778.855,-100 778.855,-150"/>
<polyline fill="none" stroke="black" points="690.068,-150 702.068,-150 "/>
<text text-anchor="middle" x="734.462" y="-134.8" font-family="Monospace" font-size="14.00" fill="white">:java 17601</text>
<text text-anchor="middle" x="734.462" y="-120.8" font-family="Monospace" font-size="14.00" fill="white">:blank 1228</text>
<text text-anchor="middle" x="734.462" y="-106.8" font-family="Monospace" font-size="14.00" fill="white">:html 129</text>
</g>
<!-- node19108&#45;&gt;node19109 -->
<g id="edge21" class="edge"><title>node19108&#45;&gt;node19109</title>
<path fill="none" stroke="black" d="M772.22,-206.911C765.669,-192.872 757.307,-174.954 750.118,-159.55"/>
<polygon fill="black" stroke="black" points="753.221,-157.922 745.821,-150.341 746.878,-160.883 753.221,-157.922"/>
<text text-anchor="middle" x="775.631" y="-170.8" font-family="Monospace" font-size="14.00">/asm</text>
</g>
<!-- node19111 -->
<g id="node21" class="node"><title>node19111</title>
<polygon fill="#cdb79e" stroke="black" points="869.782,-150 809.141,-150 809.141,-154 797.141,-154 797.141,-100 869.782,-100 869.782,-150"/>
<polyline fill="none" stroke="black" points="797.141,-150 809.141,-150 "/>
<text text-anchor="middle" x="833.462" y="-134.8" font-family="Monospace" font-size="14.00" fill="white">:java 92</text>
<text text-anchor="middle" x="833.462" y="-120.8" font-family="Monospace" font-size="14.00" fill="white">:blank 22</text>
<text text-anchor="middle" x="833.462" y="-106.8" font-family="Monospace" font-size="14.00" fill="white">:html 65</text>
</g>
<!-- node19108&#45;&gt;node19111 -->
<g id="edge22" class="edge"><title>node19108&#45;&gt;node19111</title>
<path fill="none" stroke="black" d="M794.933,-206.911C801.618,-192.872 810.151,-174.954 817.486,-159.55"/>
<polygon fill="black" stroke="black" points="820.732,-160.874 821.871,-150.341 814.412,-157.864 820.732,-160.874"/>
<text text-anchor="middle" x="828.248" y="-170.8" font-family="Monospace" font-size="14.00">/java</text>
</g>
<!-- node19113 -->
<g id="node23" class="node"><title>node19113</title>
<polygon fill="#cdb79e" stroke="black" points="976.855,-150 900.068,-150 900.068,-154 888.068,-154 888.068,-100 976.855,-100 976.855,-150"/>
<polyline fill="none" stroke="black" points="888.068,-150 900.068,-150 "/>
<text text-anchor="middle" x="932.462" y="-134.8" font-family="Monospace" font-size="14.00" fill="white">:java 34586</text>
<text text-anchor="middle" x="932.462" y="-120.8" font-family="Monospace" font-size="14.00" fill="white">:blank 5108</text>
<text text-anchor="middle" x="932.462" y="-106.8" font-family="Monospace" font-size="14.00" fill="white">:html 17</text>
</g>
<!-- node19108&#45;&gt;node19113 -->
<g id="edge23" class="edge"><title>node19108&#45;&gt;node19113</title>
<path fill="none" stroke="black" d="M817.646,-206.911C839.148,-191.758 867.062,-172.087 889.982,-155.935"/>
<polygon fill="black" stroke="black" points="892.022,-158.78 898.18,-150.159 887.989,-153.058 892.022,-158.78"/>
<text text-anchor="middle" x="886.641" y="-170.8" font-family="Monospace" font-size="14.00">/lang</text>
</g>
<!-- node19110 -->
<g id="node20" class="node"><title>node19110</title>
<polygon fill="#cdb79e" stroke="black" points="774.569,-50 706.355,-50 706.355,-54 694.355,-54 694.355,-0 774.569,-0 774.569,-50"/>
<polyline fill="none" stroke="black" points="694.355,-50 706.355,-50 "/>
<text text-anchor="middle" x="734.462" y="-34.8" font-family="Monospace" font-size="14.00" fill="white">:java 5339</text>
<text text-anchor="middle" x="734.462" y="-20.8" font-family="Monospace" font-size="14.00" fill="white">:blank 464</text>
<text text-anchor="middle" x="734.462" y="-6.8" font-family="Monospace" font-size="14.00" fill="white">:html 48</text>
</g>
<!-- node19109&#45;&gt;node19110 -->
<g id="edge24" class="edge"><title>node19109&#45;&gt;node19110</title>
<path fill="none" stroke="black" d="M734.462,-99.7753C734.462,-87.8785 734.462,-73.3376 734.462,-60.3197"/>
<polygon fill="black" stroke="black" points="737.962,-60.2857 734.462,-50.2857 730.962,-60.2857 737.962,-60.2857"/>
<text text-anchor="middle" x="766.748" y="-70.8" font-family="Monospace" font-size="14.00">/commons</text>
</g>
<!-- node19112 -->
<g id="node22" class="node"><title>node19112</title>
<polygon fill="#cdb79e" stroke="black" points="869.782,-50 809.141,-50 809.141,-54 797.141,-54 797.141,-0 869.782,-0 869.782,-50"/>
<polyline fill="none" stroke="black" points="797.141,-50 809.141,-50 "/>
<text text-anchor="middle" x="833.462" y="-34.8" font-family="Monospace" font-size="14.00" fill="white">:java 92</text>
<text text-anchor="middle" x="833.462" y="-20.8" font-family="Monospace" font-size="14.00" fill="white">:blank 22</text>
<text text-anchor="middle" x="833.462" y="-6.8" font-family="Monospace" font-size="14.00" fill="white">:html 65</text>
</g>
<!-- node19111&#45;&gt;node19112 -->
<g id="edge25" class="edge"><title>node19111&#45;&gt;node19112</title>
<path fill="none" stroke="black" d="M833.462,-99.7753C833.462,-87.8785 833.462,-73.3376 833.462,-60.3197"/>
<polygon fill="black" stroke="black" points="836.962,-60.2857 833.462,-50.2857 829.962,-60.2857 836.962,-60.2857"/>
<text text-anchor="middle" x="844.748" y="-70.8" font-family="Monospace" font-size="14.00">/api</text>
</g>
<!-- node19117 -->
<g id="node27" class="node"><title>node19117</title>
<polygon fill="#cdb79e" stroke="black" points="1416.67,-378 1324.25,-378 1324.25,-382 1312.25,-382 1312.25,-314 1416.67,-314 1416.67,-378"/>
<polyline fill="none" stroke="black" points="1312.25,-378 1324.25,-378 "/>
<text text-anchor="middle" x="1364.46" y="-362.8" font-family="Monospace" font-size="14.00" fill="white">:comment 806</text>
<text text-anchor="middle" x="1364.46" y="-348.8" font-family="Monospace" font-size="14.00" fill="white">:blank 2011</text>
<text text-anchor="middle" x="1364.46" y="-334.8" font-family="Monospace" font-size="14.00" fill="white">:clojure 10730</text>
<text text-anchor="middle" x="1364.46" y="-320.8" font-family="Monospace" font-size="14.00" fill="white">:unknown 632</text>
</g>
<!-- node19116&#45;&gt;node19117 -->
<g id="edge26" class="edge"><title>node19116&#45;&gt;node19117</title>
<path fill="none" stroke="black" d="M1364.46,-434.854C1364.46,-420.141 1364.46,-403.275 1364.46,-388.279"/>
<polygon fill="black" stroke="black" points="1367.96,-388.246 1364.46,-378.246 1360.96,-388.246 1367.96,-388.246"/>
<text text-anchor="middle" x="1387.03" y="-398.8" font-family="Monospace" font-size="14.00">/clojure</text>
</g>
<!-- node19126 -->
<g id="node36" class="node"><title>node19126</title>
<polygon fill="#cdb79e" stroke="black" points="1706.78,-364 1646.14,-364 1646.14,-368 1634.14,-368 1634.14,-328 1706.78,-328 1706.78,-364"/>
<polyline fill="none" stroke="black" points="1634.14,-364 1646.14,-364 "/>
<text text-anchor="middle" x="1670.46" y="-348.8" font-family="Monospace" font-size="14.00" fill="white">:java 44</text>
<text text-anchor="middle" x="1670.46" y="-334.8" font-family="Monospace" font-size="14.00" fill="white">:blank 13</text>
</g>
<!-- node19116&#45;&gt;node19126 -->
<g id="edge27" class="edge"><title>node19116&#45;&gt;node19126</title>
<path fill="none" stroke="black" d="M1416.72,-451.483C1475.13,-427.43 1568.81,-388.856 1624.52,-365.916"/>
<polygon fill="black" stroke="black" points="1625.88,-369.141 1633.8,-362.097 1623.22,-362.668 1625.88,-369.141"/>
<text text-anchor="middle" x="1560.25" y="-398.8" font-family="Monospace" font-size="14.00">/java</text>
</g>
<!-- node19118 -->
<g id="node28" class="node"><title>node19118</title>
<polygon fill="#cdb79e" stroke="black" points="1416.67,-264 1324.25,-264 1324.25,-268 1312.25,-268 1312.25,-200 1416.67,-200 1416.67,-264"/>
<polyline fill="none" stroke="black" points="1312.25,-264 1324.25,-264 "/>
<text text-anchor="middle" x="1364.46" y="-248.8" font-family="Monospace" font-size="14.00" fill="white">:comment 789</text>
<text text-anchor="middle" x="1364.46" y="-234.8" font-family="Monospace" font-size="14.00" fill="white">:blank 1994</text>
<text text-anchor="middle" x="1364.46" y="-220.8" font-family="Monospace" font-size="14.00" fill="white">:clojure 10632</text>
<text text-anchor="middle" x="1364.46" y="-206.8" font-family="Monospace" font-size="14.00" fill="white">:unknown 632</text>
</g>
<!-- node19117&#45;&gt;node19118 -->
<g id="edge28" class="edge"><title>node19117&#45;&gt;node19118</title>
<path fill="none" stroke="black" d="M1364.46,-313.802C1364.46,-301.544 1364.46,-287.3 1364.46,-274.216"/>
<polygon fill="black" stroke="black" points="1367.96,-274.031 1364.46,-264.031 1360.96,-274.031 1367.96,-274.031"/>
<text text-anchor="middle" x="1402.2" y="-284.8" font-family="Monospace" font-size="14.00">/test_clojure</text>
</g>
<!-- node19119 -->
<g id="node29" class="node"><title>node19119</title>
<polygon fill="#cdb79e" stroke="black" points="1084.1,-150 1006.82,-150 1006.82,-154 994.824,-154 994.824,-100 1084.1,-100 1084.1,-150"/>
<polyline fill="none" stroke="black" points="994.824,-150 1006.82,-150 "/>
<text text-anchor="middle" x="1039.46" y="-134.8" font-family="Monospace" font-size="14.00" fill="white">:comment 2</text>
<text text-anchor="middle" x="1039.46" y="-120.8" font-family="Monospace" font-size="14.00" fill="white">:clojure 133</text>
<text text-anchor="middle" x="1039.46" y="-106.8" font-family="Monospace" font-size="14.00" fill="white">:blank 20</text>
</g>
<!-- node19118&#45;&gt;node19119 -->
<g id="edge29" class="edge"><title>node19118&#45;&gt;node19119</title>
<path fill="none" stroke="black" d="M1311.84,-228.017C1259.04,-223.4 1176.41,-211.679 1111.18,-182 1097.28,-175.674 1083.65,-166.138 1072.06,-156.72"/>
<polygon fill="black" stroke="black" points="1074.3,-154.025 1064.4,-150.259 1069.79,-159.379 1074.3,-154.025"/>
<text text-anchor="middle" x="1149.6" y="-170.8" font-family="Monospace" font-size="14.00">/annotations</text>
</g>
<!-- node19120 -->
<g id="node30" class="node"><title>node19120</title>
<polygon fill="#cdb79e" stroke="black" points="1191.1,-150 1113.82,-150 1113.82,-154 1101.82,-154 1101.82,-100 1191.1,-100 1191.1,-150"/>
<polyline fill="none" stroke="black" points="1101.82,-150 1113.82,-150 "/>
<text text-anchor="middle" x="1146.46" y="-134.8" font-family="Monospace" font-size="14.00" fill="white">:comment 7</text>
<text text-anchor="middle" x="1146.46" y="-120.8" font-family="Monospace" font-size="14.00" fill="white">:blank 21</text>
<text text-anchor="middle" x="1146.46" y="-106.8" font-family="Monospace" font-size="14.00" fill="white">:clojure 112</text>
</g>
<!-- node19118&#45;&gt;node19120 -->
<g id="edge30" class="edge"><title>node19118&#45;&gt;node19120</title>
<path fill="none" stroke="black" d="M1312.12,-219.961C1281.33,-212.118 1242.37,-199.788 1210.76,-182 1198.73,-175.231 1186.94,-165.965 1176.8,-156.919"/>
<polygon fill="black" stroke="black" points="1179.12,-154.296 1169.39,-150.088 1174.37,-159.441 1179.12,-154.296"/>
<text text-anchor="middle" x="1248.81" y="-170.8" font-family="Monospace" font-size="14.00">/compilation</text>
</g>
<!-- node19121 -->
<g id="node31" class="node"><title>node19121</title>
<polygon fill="#cdb79e" stroke="black" points="1298.1,-150 1220.82,-150 1220.82,-154 1208.82,-154 1208.82,-100 1298.1,-100 1298.1,-150"/>
<polyline fill="none" stroke="black" points="1208.82,-150 1220.82,-150 "/>
<text text-anchor="middle" x="1253.46" y="-134.8" font-family="Monospace" font-size="14.00" fill="white">:comment 8</text>
<text text-anchor="middle" x="1253.46" y="-120.8" font-family="Monospace" font-size="14.00" fill="white">:blank 13</text>
<text text-anchor="middle" x="1253.46" y="-106.8" font-family="Monospace" font-size="14.00" fill="white">:clojure 80</text>
</g>
<!-- node19118&#45;&gt;node19121 -->
<g id="edge31" class="edge"><title>node19118&#45;&gt;node19121</title>
<path fill="none" stroke="black" d="M1321.69,-199.731C1314.68,-194.066 1307.64,-188.034 1301.32,-182 1293.53,-174.575 1285.7,-165.983 1278.69,-157.793"/>
<polygon fill="black" stroke="black" points="1281.35,-155.526 1272.24,-150.115 1275.99,-160.025 1281.35,-155.526"/>
<text text-anchor="middle" x="1331.03" y="-170.8" font-family="Monospace" font-size="14.00">/genclass</text>
</g>
<!-- node19122 -->
<g id="node32" class="node"><title>node19122</title>
<polygon fill="#cdb79e" stroke="black" points="1412.89,-150 1328.04,-150 1328.04,-154 1316.04,-154 1316.04,-100 1412.89,-100 1412.89,-150"/>
<polyline fill="none" stroke="black" points="1316.04,-150 1328.04,-150 "/>
<text text-anchor="middle" x="1364.46" y="-134.8" font-family="Monospace" font-size="14.00" fill="white">:comment 23</text>
<text text-anchor="middle" x="1364.46" y="-120.8" font-family="Monospace" font-size="14.00" fill="white">:blank 31</text>
<text text-anchor="middle" x="1364.46" y="-106.8" font-family="Monospace" font-size="14.00" fill="white">:clojure 243</text>
</g>
<!-- node19118&#45;&gt;node19122 -->
<g id="edge32" class="edge"><title>node19118&#45;&gt;node19122</title>
<path fill="none" stroke="black" d="M1364.46,-199.781C1364.46,-187.407 1364.46,-173.135 1364.46,-160.46"/>
<polygon fill="black" stroke="black" points="1367.96,-160.265 1364.46,-150.265 1360.96,-160.265 1367.96,-160.265"/>
<text text-anchor="middle" x="1379.25" y="-170.8" font-family="Monospace" font-size="14.00">/java</text>
</g>
<!-- node19123 -->
<g id="node33" class="node"><title>node19123</title>
<polygon fill="#cdb79e" stroke="black" points="1527.89,-150 1443.04,-150 1443.04,-154 1431.04,-154 1431.04,-100 1527.89,-100 1527.89,-150"/>
<polyline fill="none" stroke="black" points="1431.04,-150 1443.04,-150 "/>
<text text-anchor="middle" x="1479.46" y="-134.8" font-family="Monospace" font-size="14.00" fill="white">:comment 62</text>
<text text-anchor="middle" x="1479.46" y="-120.8" font-family="Monospace" font-size="14.00" fill="white">:blank 169</text>
<text text-anchor="middle" x="1479.46" y="-106.8" font-family="Monospace" font-size="14.00" fill="white">:clojure 1029</text>
</g>
<!-- node19118&#45;&gt;node19123 -->
<g id="edge33" class="edge"><title>node19118&#45;&gt;node19123</title>
<path fill="none" stroke="black" d="M1398.65,-199.781C1413.43,-186.294 1430.67,-170.551 1445.42,-157.079"/>
<polygon fill="black" stroke="black" points="1447.86,-159.593 1452.89,-150.265 1443.14,-154.423 1447.86,-159.593"/>
<text text-anchor="middle" x="1451.92" y="-170.8" font-family="Monospace" font-size="14.00">/pprint</text>
</g>
<!-- node19124 -->
<g id="node34" class="node"><title>node19124</title>
<polygon fill="#cdb79e" stroke="black" points="1634.84,-143 1558.08,-143 1558.08,-147 1546.08,-147 1546.08,-107 1634.84,-107 1634.84,-143"/>
<polyline fill="none" stroke="black" points="1546.08,-143 1558.08,-143 "/>
<text text-anchor="middle" x="1590.46" y="-127.8" font-family="Monospace" font-size="14.00" fill="white">:clojure 108</text>
<text text-anchor="middle" x="1590.46" y="-113.8" font-family="Monospace" font-size="14.00" fill="white">:blank 16</text>
</g>
<!-- node19118&#45;&gt;node19124 -->
<g id="edge34" class="edge"><title>node19118&#45;&gt;node19124</title>
<path fill="none" stroke="black" d="M1416.88,-208.343C1435.45,-200.188 1456.45,-190.822 1475.46,-182 1499.24,-170.968 1525.54,-158.204 1546.98,-147.651"/>
<polygon fill="black" stroke="black" points="1548.73,-150.687 1556.15,-143.124 1545.64,-144.41 1548.73,-150.687"/>
<text text-anchor="middle" x="1534.81" y="-170.8" font-family="Monospace" font-size="14.00">/protocols</text>
</g>
<!-- node19125 -->
<g id="node35" class="node"><title>node19125</title>
<polygon fill="#cdb79e" stroke="black" points="1742.1,-150 1664.82,-150 1664.82,-154 1652.82,-154 1652.82,-100 1742.1,-100 1742.1,-150"/>
<polyline fill="none" stroke="black" points="1652.82,-150 1664.82,-150 "/>
<text text-anchor="middle" x="1697.46" y="-134.8" font-family="Monospace" font-size="14.00" fill="white">:clojure 3</text>
<text text-anchor="middle" x="1697.46" y="-120.8" font-family="Monospace" font-size="14.00" fill="white">:blank 1</text>
<text text-anchor="middle" x="1697.46" y="-106.8" font-family="Monospace" font-size="14.00" fill="white">:comment 1</text>
</g>
<!-- node19118&#45;&gt;node19125 -->
<g id="edge35" class="edge"><title>node19118&#45;&gt;node19125</title>
<path fill="none" stroke="black" d="M1416.98,-221.069C1458.81,-212.533 1518.6,-198.934 1569.46,-182 1603.46,-170.681 1610.65,-164.388 1643.46,-150 1643.56,-149.959 1643.65,-149.918 1643.74,-149.876"/>
<polygon fill="black" stroke="black" points="1644.94,-153.172 1652.69,-145.941 1642.13,-146.765 1644.94,-153.172"/>
<text text-anchor="middle" x="1618.08" y="-170.8" font-family="Monospace" font-size="14.00">/repl</text>
</g>
<!-- node19127 -->
<g id="node37" class="node"><title>node19127</title>
<polygon fill="#cdb79e" stroke="black" points="1662,-250 1608.93,-250 1608.93,-254 1596.93,-254 1596.93,-214 1662,-214 1662,-250"/>
<polyline fill="none" stroke="black" points="1596.93,-250 1608.93,-250 "/>
<text text-anchor="middle" x="1629.46" y="-234.8" font-family="Monospace" font-size="14.00" fill="white">:java 16</text>
<text text-anchor="middle" x="1629.46" y="-220.8" font-family="Monospace" font-size="14.00" fill="white">:blank 6</text>
</g>
<!-- node19126&#45;&gt;node19127 -->
<g id="edge36" class="edge"><title>node19126&#45;&gt;node19127</title>
<path fill="none" stroke="black" d="M1656.02,-327.973C1649.22,-319.023 1641.67,-307.535 1637.33,-296 1633.1,-284.74 1631.05,-271.632 1630.08,-260.298"/>
<polygon fill="black" stroke="black" points="1633.56,-259.86 1629.46,-250.093 1626.58,-260.288 1633.56,-259.86"/>
<text text-anchor="middle" x="1659.03" y="-284.8" font-family="Monospace" font-size="14.00">/clojure</text>
</g>
<!-- node19129 -->
<g id="node39" class="node"><title>node19129</title>
<polygon fill="#cdb79e" stroke="black" points="1745,-250 1691.93,-250 1691.93,-254 1679.93,-254 1679.93,-214 1745,-214 1745,-250"/>
<polyline fill="none" stroke="black" points="1679.93,-250 1691.93,-250 "/>
<text text-anchor="middle" x="1712.46" y="-234.8" font-family="Monospace" font-size="14.00" fill="white">:java 12</text>
<text text-anchor="middle" x="1712.46" y="-220.8" font-family="Monospace" font-size="14.00" fill="white">:blank 3</text>
</g>
<!-- node19126&#45;&gt;node19129 -->
<g id="edge37" class="edge"><title>node19126&#45;&gt;node19129</title>
<path fill="none" stroke="black" d="M1676.84,-327.99C1683.66,-309.817 1694.55,-280.769 1702.5,-259.575"/>
<polygon fill="black" stroke="black" points="1705.79,-260.763 1706.02,-250.17 1699.23,-258.305 1705.79,-260.763"/>
<text text-anchor="middle" x="1730.81" y="-284.8" font-family="Monospace" font-size="14.00">/compilation</text>
</g>
<!-- node19130 -->
<g id="node40" class="node"><title>node19130</title>
<polygon fill="#cdb79e" stroke="black" points="1835,-250 1781.93,-250 1781.93,-254 1769.93,-254 1769.93,-214 1835,-214 1835,-250"/>
<polyline fill="none" stroke="black" points="1769.93,-250 1781.93,-250 "/>
<text text-anchor="middle" x="1802.46" y="-234.8" font-family="Monospace" font-size="14.00" fill="white">:java 16</text>
<text text-anchor="middle" x="1802.46" y="-220.8" font-family="Monospace" font-size="14.00" fill="white">:blank 4</text>
</g>
<!-- node19126&#45;&gt;node19130 -->
<g id="edge38" class="edge"><title>node19126&#45;&gt;node19130</title>
<path fill="none" stroke="black" d="M1707.16,-334.221C1728.41,-326.443 1754.43,-314.09 1772.46,-296 1782.42,-286.012 1789.52,-272.081 1794.31,-259.858"/>
<polygon fill="black" stroke="black" points="1797.72,-260.711 1797.8,-250.117 1791.13,-258.351 1797.72,-260.711"/>
<text text-anchor="middle" x="1809.69" y="-284.8" font-family="Monospace" font-size="14.00">/reflector</text>
</g>
<!-- node19128 -->
<g id="node38" class="node"><title>node19128</title>
<polygon fill="#cdb79e" stroke="black" points="1825,-143 1771.93,-143 1771.93,-147 1759.93,-147 1759.93,-107 1825,-107 1825,-143"/>
<polyline fill="none" stroke="black" points="1759.93,-143 1771.93,-143 "/>
<text text-anchor="middle" x="1792.46" y="-127.8" font-family="Monospace" font-size="14.00" fill="white">:java 16</text>
<text text-anchor="middle" x="1792.46" y="-113.8" font-family="Monospace" font-size="14.00" fill="white">:blank 6</text>
</g>
<!-- node19127&#45;&gt;node19128 -->
<g id="edge39" class="edge"><title>node19127&#45;&gt;node19128</title>
<path fill="none" stroke="black" d="M1649.39,-213.748C1655.81,-208.806 1663.16,-203.748 1670.46,-200 1694.47,-187.676 1704.9,-195.173 1728.46,-182 1743.43,-173.628 1758,-161.32 1769.44,-150.373"/>
<polygon fill="black" stroke="black" points="1772.17,-152.594 1776.83,-143.078 1767.26,-147.612 1772.17,-152.594"/>
<text text-anchor="middle" x="1760.69" y="-170.8" font-family="Monospace" font-size="14.00">/test</text>
</g>
</g>
</svg>
