<?xml version="1.0" encoding="UTF-8" standalone="no"?>
<!DOCTYPE svg PUBLIC "-//W3C//DTD SVG 1.1//EN"
 "http://www.w3.org/Graphics/SVG/1.1/DTD/svg11.dtd">
<!-- Generated by graphviz version 2.40.1 (20161225.0304)
 -->
<!-- Title: %3 Pages: 1 -->
<svg width="551pt" height="273pt"
 viewBox="0.00 0.00 661.63 328.00" xmlns="http://www.w3.org/2000/svg" xmlns:xlink="http://www.w3.org/1999/xlink">
<g id="graph0" class="graph" transform="scale(.8333 .8333) rotate(0) translate(4 324)">
<title>%3</title>
<polygon fill="#ffffff" stroke="transparent" points="-4,4 -4,-324 657.627,-324 657.627,4 -4,4"/>
<!-- node1 -->
<g id="node1" class="node">
<title>node1</title>
<polygon fill="#cdb79e" stroke="#000000" points="358.3752,-320 267.0174,-320 267.0174,-324 255.0174,-324 255.0174,-228 358.3752,-228 358.3752,-320"/>
<polyline fill="none" stroke="#000000" points="255.0174,-320 267.0174,-320 "/>
<text text-anchor="middle" x="306.6963" y="-304.8" font-family="Monospace" font-size="14.00" fill="#ffffff">:clojure 509</text>
<text text-anchor="middle" x="306.6963" y="-290.8" font-family="Monospace" font-size="14.00" fill="#ffffff">:blank 185</text>
<text text-anchor="middle" x="306.6963" y="-276.8" font-family="Monospace" font-size="14.00" fill="#ffffff">:text 47</text>
<text text-anchor="middle" x="306.6963" y="-262.8" font-family="Monospace" font-size="14.00" fill="#ffffff">:unknown 391</text>
<text text-anchor="middle" x="306.6963" y="-248.8" font-family="Monospace" font-size="14.00" fill="#ffffff">:comment 31</text>
<text text-anchor="middle" x="306.6963" y="-234.8" font-family="Monospace" font-size="14.00" fill="#ffffff">:xml 90</text>
</g>
<!-- node2 -->
<g id="node2" class="node">
<title>node2</title>
<polygon fill="#cdb79e" stroke="#000000" points="95.5897,-178 11.8029,-178 11.8029,-182 -.1971,-182 -.1971,-114 95.5897,-114 95.5897,-178"/>
<polyline fill="none" stroke="#000000" points="-.1971,-178 11.8029,-178 "/>
<text text-anchor="middle" x="47.6963" y="-162.8" font-family="Monospace" font-size="14.00" fill="#ffffff">:unknown 96</text>
<text text-anchor="middle" x="47.6963" y="-148.8" font-family="Monospace" font-size="14.00" fill="#ffffff">:blank 48</text>
<text text-anchor="middle" x="47.6963" y="-134.8" font-family="Monospace" font-size="14.00" fill="#ffffff">:clojure 135</text>
<text text-anchor="middle" x="47.6963" y="-120.8" font-family="Monospace" font-size="14.00" fill="#ffffff">:comment 5</text>
</g>
<!-- node1&#45;&gt;node2 -->
<g id="edge1" class="edge">
<title>node1&#45;&gt;node2</title>
<path fill="none" stroke="#000000" d="M254.7468,-250.4913C213.664,-231.6177 155.0421,-204.0574 104.6963,-178 104.6018,-177.9511 104.5072,-177.9021 104.4126,-177.8531"/>
<polygon fill="#000000" stroke="#000000" points="105.939,-174.7011 95.462,-173.1257 102.6699,-180.8909 105.939,-174.7011"/>
<text text-anchor="middle" x="178.9238" y="-198.8" font-family="Monospace" font-size="14.00" fill="#000000">/test</text>
</g>
<!-- node4 -->
<g id="node4" class="node">
<title>node4</title>
<polygon fill="#dcdcdc" stroke="#000000" points="196.1338,-164 125.2588,-164 125.2588,-168 113.2588,-168 113.2588,-128 196.1338,-128 196.1338,-164"/>
<polyline fill="none" stroke="#000000" points="113.2588,-164 125.2588,-164 "/>
<text text-anchor="middle" x="154.6963" y="-141.8" font-family="Monospace" font-size="14.00" fill="#ffffff">*excluded*</text>
</g>
<!-- node1&#45;&gt;node4 -->
<g id="edge2" class="edge">
<title>node1&#45;&gt;node4</title>
<path fill="none" stroke="#000000" d="M254.7161,-235.5328C244.0714,-227.2995 233.0552,-218.5127 223.0068,-210 208.5281,-197.7341 193.0459,-183.3429 180.4878,-171.317"/>
<polygon fill="#000000" stroke="#000000" points="182.7094,-168.5971 173.0816,-164.1749 177.8504,-173.6359 182.7094,-168.5971"/>
<text text-anchor="middle" x="243.541" y="-198.8" font-family="Monospace" font-size="14.00" fill="#000000">/target</text>
</g>
<!-- node5 -->
<g id="node5" class="node">
<title>node5</title>
<polygon fill="#dcdcdc" stroke="#000000" points="297.1338,-164 226.2588,-164 226.2588,-168 214.2588,-168 214.2588,-128 297.1338,-128 297.1338,-164"/>
<polyline fill="none" stroke="#000000" points="214.2588,-164 226.2588,-164 "/>
<text text-anchor="middle" x="255.6963" y="-141.8" font-family="Monospace" font-size="14.00" fill="#ffffff">*excluded*</text>
</g>
<!-- node1&#45;&gt;node5 -->
<g id="edge3" class="edge">
<title>node1&#45;&gt;node5</title>
<path fill="none" stroke="#000000" d="M279.3415,-227.8558C276.4017,-221.9567 273.6462,-215.9124 271.3379,-210 266.8472,-198.4977 263.3624,-185.3155 260.8337,-173.9156"/>
<polygon fill="#000000" stroke="#000000" points="264.2439,-173.1233 258.7788,-164.0467 257.3909,-174.5502 264.2439,-173.1233"/>
<text text-anchor="middle" x="304.3755" y="-198.8" font-family="Monospace" font-size="14.00" fill="#000000">/resources</text>
</g>
<!-- node6 -->
<g id="node6" class="node">
<title>node6</title>
<polygon fill="#cdb79e" stroke="#000000" points="402.3036,-171 327.089,-171 327.089,-175 315.089,-175 315.089,-121 402.3036,-121 402.3036,-171"/>
<polyline fill="none" stroke="#000000" points="315.089,-171 327.089,-171 "/>
<text text-anchor="middle" x="358.6963" y="-155.8" font-family="Monospace" font-size="14.00" fill="#ffffff">:unknown 2</text>
<text text-anchor="middle" x="358.6963" y="-141.8" font-family="Monospace" font-size="14.00" fill="#ffffff">:blank 2</text>
<text text-anchor="middle" x="358.6963" y="-127.8" font-family="Monospace" font-size="14.00" fill="#ffffff">:text 2</text>
</g>
<!-- node1&#45;&gt;node6 -->
<g id="edge4" class="edge">
<title>node1&#45;&gt;node6</title>
<path fill="none" stroke="#000000" d="M329.0804,-227.7675C331.744,-221.8305 334.3476,-215.8009 336.6963,-210 340.4925,-200.624 344.2236,-190.316 347.504,-180.7632"/>
<polygon fill="#000000" stroke="#000000" points="350.866,-181.7465 350.7432,-171.1524 344.2326,-179.5108 350.866,-181.7465"/>
<text text-anchor="middle" x="355.9272" y="-198.8" font-family="Monospace" font-size="14.00" fill="#000000">/doc</text>
</g>
<!-- node7 -->
<g id="node7" class="node">
<title>node7</title>
<polygon fill="#dcdcdc" stroke="#000000" points="503.1338,-164 432.2588,-164 432.2588,-168 420.2588,-168 420.2588,-128 503.1338,-128 503.1338,-164"/>
<polyline fill="none" stroke="#000000" points="420.2588,-164 432.2588,-164 "/>
<text text-anchor="middle" x="461.6963" y="-141.8" font-family="Monospace" font-size="14.00" fill="#ffffff">*excluded*</text>
</g>
<!-- node1&#45;&gt;node7 -->
<g id="edge5" class="edge">
<title>node1&#45;&gt;node7</title>
<path fill="none" stroke="#000000" d="M358.309,-231.3779C382.7211,-211.2182 411.0048,-187.8613 431.812,-170.6786"/>
<polygon fill="#000000" stroke="#000000" points="434.1942,-173.2506 439.6763,-164.1843 429.7369,-167.8531 434.1942,-173.2506"/>
<text text-anchor="middle" x="409.979" y="-198.8" font-family="Monospace" font-size="14.00" fill="#000000">/.git</text>
</g>
<!-- node8 -->
<g id="node8" class="node">
<title>node8</title>
<polygon fill="#cdb79e" stroke="#000000" points="624.3752,-178 533.0174,-178 533.0174,-182 521.0174,-182 521.0174,-114 624.3752,-114 624.3752,-178"/>
<polyline fill="none" stroke="#000000" points="521.0174,-178 533.0174,-178 "/>
<text text-anchor="middle" x="572.6963" y="-162.8" font-family="Monospace" font-size="14.00" fill="#ffffff">:clojure 365</text>
<text text-anchor="middle" x="572.6963" y="-148.8" font-family="Monospace" font-size="14.00" fill="#ffffff">:blank 120</text>
<text text-anchor="middle" x="572.6963" y="-134.8" font-family="Monospace" font-size="14.00" fill="#ffffff">:comment 26</text>
<text text-anchor="middle" x="572.6963" y="-120.8" font-family="Monospace" font-size="14.00" fill="#ffffff">:unknown 285</text>
</g>
<!-- node1&#45;&gt;node8 -->
<g id="edge6" class="edge">
<title>node1&#45;&gt;node8</title>
<path fill="none" stroke="#000000" d="M358.3958,-250.5729C400.0329,-231.5178 459.9451,-203.6751 511.6963,-178 511.79,-177.9535 511.8838,-177.9069 511.9777,-177.8603"/>
<polygon fill="#000000" stroke="#000000" points="513.5009,-181.012 520.8639,-173.3939 510.3572,-174.7576 513.5009,-181.012"/>
<text text-anchor="middle" x="484.9722" y="-198.8" font-family="Monospace" font-size="14.00" fill="#000000">/src</text>
</g>
<!-- node3 -->
<g id="node3" class="node">
<title>node3</title>
<polygon fill="#cdb79e" stroke="#000000" points="95.5897,-64 11.8029,-64 11.8029,-68 -.1971,-68 -.1971,0 95.5897,0 95.5897,-64"/>
<polyline fill="none" stroke="#000000" points="-.1971,-64 11.8029,-64 "/>
<text text-anchor="middle" x="47.6963" y="-48.8" font-family="Monospace" font-size="14.00" fill="#ffffff">:unknown 96</text>
<text text-anchor="middle" x="47.6963" y="-34.8" font-family="Monospace" font-size="14.00" fill="#ffffff">:blank 48</text>
<text text-anchor="middle" x="47.6963" y="-20.8" font-family="Monospace" font-size="14.00" fill="#ffffff">:clojure 135</text>
<text text-anchor="middle" x="47.6963" y="-6.8" font-family="Monospace" font-size="14.00" fill="#ffffff">:comment 5</text>
</g>
<!-- node2&#45;&gt;node3 -->
<g id="edge7" class="edge">
<title>node2&#45;&gt;node3</title>
<path fill="none" stroke="#000000" d="M47.6963,-113.9413C47.6963,-101.6776 47.6963,-87.4952 47.6963,-74.4121"/>
<polygon fill="#000000" stroke="#000000" points="51.1964,-74.2131 47.6963,-64.2131 44.1964,-74.2131 51.1964,-74.2131"/>
<text text-anchor="middle" x="88.1616" y="-84.8" font-family="Monospace" font-size="14.00" fill="#000000">/async&#45;graph</text>
</g>
<!-- node9 -->
<g id="node9" class="node">
<title>node9</title>
<polygon fill="#cdb79e" stroke="#000000" points="624.3752,-64 533.0174,-64 533.0174,-68 521.0174,-68 521.0174,0 624.3752,0 624.3752,-64"/>
<polyline fill="none" stroke="#000000" points="521.0174,-64 533.0174,-64 "/>
<text text-anchor="middle" x="572.6963" y="-48.8" font-family="Monospace" font-size="14.00" fill="#ffffff">:clojure 365</text>
<text text-anchor="middle" x="572.6963" y="-34.8" font-family="Monospace" font-size="14.00" fill="#ffffff">:blank 120</text>
<text text-anchor="middle" x="572.6963" y="-20.8" font-family="Monospace" font-size="14.00" fill="#ffffff">:comment 26</text>
<text text-anchor="middle" x="572.6963" y="-6.8" font-family="Monospace" font-size="14.00" fill="#ffffff">:unknown 285</text>
</g>
<!-- node8&#45;&gt;node9 -->
<g id="edge8" class="edge">
<title>node8&#45;&gt;node9</title>
<path fill="none" stroke="#000000" d="M572.6963,-113.9413C572.6963,-101.6776 572.6963,-87.4952 572.6963,-74.4121"/>
<polygon fill="#000000" stroke="#000000" points="576.1964,-74.2131 572.6963,-64.2131 569.1964,-74.2131 576.1964,-74.2131"/>
<text text-anchor="middle" x="613.1616" y="-84.8" font-family="Monospace" font-size="14.00" fill="#000000">/async&#45;graph</text>
</g>
</g>
</svg>
