<?xml version="1.0" encoding="UTF-8" standalone="no"?>
<!DOCTYPE svg PUBLIC "-//W3C//DTD SVG 1.1//EN"
 "http://www.w3.org/Graphics/SVG/1.1/DTD/svg11.dtd">
<!-- Generated by graphviz version 2.40.1 (20161225.0304)
 -->
<!-- Title: %3 Pages: 1 -->
<svg width="96pt" height="132pt"
 viewBox="0.00 0.00 115.61 158.00" xmlns="http://www.w3.org/2000/svg" xmlns:xlink="http://www.w3.org/1999/xlink">
<g id="graph0" class="graph" transform="scale(.8333 .8333) rotate(0) translate(4 154)">
<title>%3</title>
<polygon fill="#ffffff" stroke="transparent" points="-4,4 -4,-154 111.6064,-154 111.6064,4 -4,4"/>
<!-- node1 -->
<g id="node1" class="node">
<title>node1</title>
<polygon fill="#cdb79e" stroke="#000000" points="96.8858,-150 12.0381,-150 12.0381,-154 .0381,-154 .0381,-100 96.8858,-100 96.8858,-150"/>
<polyline fill="none" stroke="#000000" points=".0381,-150 12.0381,-150 "/>
<text text-anchor="middle" x="48.4619" y="-134.8" font-family="Monospace" font-size="14.00" fill="#ffffff">:clojure 389</text>
<text text-anchor="middle" x="48.4619" y="-120.8" font-family="Monospace" font-size="14.00" fill="#ffffff">:blank 88</text>
<text text-anchor="middle" x="48.4619" y="-106.8" font-family="Monospace" font-size="14.00" fill="#ffffff">:comment 16</text>
</g>
<!-- node2 -->
<g id="node2" class="node">
<title>node2</title>
<polygon fill="#cdb79e" stroke="#000000" points="96.8858,-50 12.0381,-50 12.0381,-54 .0381,-54 .0381,0 96.8858,0 96.8858,-50"/>
<polyline fill="none" stroke="#000000" points=".0381,-50 12.0381,-50 "/>
<text text-anchor="middle" x="48.4619" y="-34.8" font-family="Monospace" font-size="14.00" fill="#ffffff">:clojure 389</text>
<text text-anchor="middle" x="48.4619" y="-20.8" font-family="Monospace" font-size="14.00" fill="#ffffff">:blank 88</text>
<text text-anchor="middle" x="48.4619" y="-6.8" font-family="Monospace" font-size="14.00" fill="#ffffff">:comment 16</text>
</g>
<!-- node1&#45;&gt;node2 -->
<g id="edge1" class="edge">
<title>node1&#45;&gt;node2</title>
<path fill="none" stroke="#000000" d="M48.4619,-99.7658C48.4619,-87.8042 48.4619,-73.3127 48.4619,-60.2845"/>
<polygon fill="#000000" stroke="#000000" points="51.962,-60.2261 48.4619,-50.2261 44.962,-60.2262 51.962,-60.2261"/>
<text text-anchor="middle" x="78.0342" y="-70.8" font-family="Monospace" font-size="14.00" fill="#000000">/code_viz</text>
</g>
</g>
</svg>
